PathFileType	4	(X/Y/Z)	/Users/itak/Documents/Research/Walk-IL/dataset/trc/00562_00009.trc
DataRate	CameraRate	NumFrames	NumMarkers	Units	OrigDataRate	OrigDataStartFrame	OrigNumFrames
100.000000	100.000000	4	53	mm	100.000000	0	416
Frame#	Time	RPSI			LPSI			L3			STRN			T10			C7			CLAV			RBAK			LBAK			LSHO			LUPA			LAEL			LAOL			LWTS			LWPS			LFRA			LHPS			LHTS			RSHO			RUPA			RAEL			RAOL			RWTS			RWPS			RFRA			RIFD			RHTS			RHPS			RBHD			LFHD			RFHD			LBHD			LHIP			RHIP			RASI			LASI			LKNE			LTHI			LANK			LTIP			LTOE			LMT1			LMT5			LHEE			RKNE			RTHI			RANK			RTIP			RTOE			RMT1			RMT5			RHEE			LIFD			
		X1	Y1	Z1	X2	Y2	Z2	X3	Y3	Z3	X4	Y4	Z4	X5	Y5	Z5	X6	Y6	Z6	X7	Y7	Z7	X8	Y8	Z8	X9	Y9	Z9	X10	Y10	Z10	X11	Y11	Z11	X12	Y12	Z12	X13	Y13	Z13	X14	Y14	Z14	X15	Y15	Z15	X16	Y16	Z16	X17	Y17	Z17	X18	Y18	Z18	X19	Y19	Z19	X20	Y20	Z20	X21	Y21	Z21	X22	Y22	Z22	X23	Y23	Z23	X24	Y24	Z24	X25	Y25	Z25	X26	Y26	Z26	X27	Y27	Z27	X28	Y28	Z28	X29	Y29	Z29	X30	Y30	Z30	X31	Y31	Z31	X32	Y32	Z32	X33	Y33	Z33	X34	Y34	Z34	X35	Y35	Z35	X36	Y36	Z36	X37	Y37	Z37	X38	Y38	Z38	X39	Y39	Z39	X40	Y40	Z40	X41	Y41	Z41	X42	Y42	Z42	X43	Y43	Z43	X44	Y44	Z44	X45	Y45	Z45	X46	Y46	Z46	X47	Y47	Z47	X48	Y48	Z48	X49	Y49	Z49	X50	Y50	Z50	X51	Y51	Z51	X52	Y52	Z52	X53	Y53	Z53	

1	0	-1481.528198242188	1017.099426269531	-420.9958801269531	-1429.709350585938	1019.168334960938	-543.953369140625	-1450.176025390625	1106.354614257812	-483.8293151855469	-1232.679809570312	1296.59912109375	-408.4986267089844	-1459.904907226562	1232.693237304688	-486.685791015625	-1423.80859375	1506.590942382812	-452.4564819335938	-1251.388793945312	1407.969360351562	-413.195556640625	-1515.874877929688	1380.308715820312	-396.0285949707031	-1430.166870117188	1455.524780273438	-549.3091430664062	-1315.1171875	1485.605590820312	-599.4938354492188	-1314.63720703125	1364.188232421875	-686.7174682617188	-1316.317016601562	1145.164184570312	-720.3092651367188	-1410.889892578125	1146.026611328125	-686.7320556640625	-1276.543701171875	886.1346435546875	-676.9052734375	-1303.887939453125	877.8792724609375	-759.3380737304688	-1304.710083007812	1057.070434570312	-730.7227172851562	-1310.438842773438	818.041748046875	-757.9761962890625	-1273.232788085938	807.6077880859375	-701.5753173828125	-1415.611083984375	1468.9765625	-289.4721374511719	-1456.223266601562	1405.083129882812	-231.8702545166016	-1480.704956054688	1114.56494140625	-198.9213256835938	-1525.660522460938	1100.821533203125	-241.7231903076172	-1351.394409179688	887.9113159179688	-200.5616149902344	-1416.47509765625	870.9444580078125	-151.6123657226562	-1475.798095703125	1058.913208007812	-190.3412170410156	-1357.47705078125	715.91748046875	-198.4874420166016	-1335.261352539062	795.009765625	-177.6759033203125	-1404.315063476562	796.5569458007812	-146.2374572753906	-1374.990600585938	1686.239501953125	-376.4290466308594	-1179.131713867188	1708.960327148438	-446.0770263671875	-1248.81494140625	1707.5615234375	-319.1167297363281	-1289.972778320312	1686.568237304688	-519.0850830078125	-1266.953491210938	937.062744140625	-620.2886962890625	-1400.459228515625	931.20263671875	-257.3009338378906	-1311.855712890625	971.3594970703125	-285.4180603027344	-1209.753784179688	963.2488403320312	-543.7630004882812	-1290.938110351562	491.1767578125	-560.1748657226562	-1266.827392578125	656.2786865234375	-593.3530883789062	-1383.249633789062	28.31782722473145	-575.072265625	-1358.594116210938	249.3049774169922	-583.5697631835938	-1201.579833984375	35.72336959838867	-453.3690795898438	-1282.2158203125	38.41682434082031	-441.6463012695312	-1260.625610351562	32.25502014160156	-548.4653930664062	-1465.311645507812	26.24504280090332	-545.1653442382812	-1383.37841796875	497.1864318847656	-297.9180908203125	-1381.979614257812	787.0999145507812	-250.2016906738281	-1478.304931640625	32.3902587890625	-346.4833374023438	-1385.381713867188	353.6607360839844	-314.6457214355469	-1255.542602539062	37.9757194519043	-315.4600219726562	-1302.374877929688	36.83420944213867	-375.5481872558594	-1355.8447265625	36.13402938842773	-285.5403442382812	-1511.663452148438	19.95072555541992	-416.5439147949219	-1317.427856445312	723.8743896484375	-702.8916625976562	
2	0.01	-1481.678466796875	1017.156982421875	-420.84619140625	-1429.822875976562	1019.1708984375	-543.8303833007812	-1450.301147460938	1106.397338867188	-483.6173706054688	-1232.716918945312	1296.572875976562	-408.3853149414062	-1459.989868164062	1232.693359375	-486.4204406738281	-1423.86181640625	1506.615478515625	-452.3241882324219	-1251.44384765625	1407.9716796875	-413.0424499511719	-1515.9228515625	1380.31005859375	-395.8212890625	-1430.138427734375	1455.471923828125	-549.1264038085938	-1315.137084960938	1485.601196289062	-599.3845825195312	-1314.53271484375	1364.184448242188	-686.61669921875	-1315.8505859375	1145.2373046875	-720.3269653320312	-1410.385986328125	1145.904052734375	-686.6307373046875	-1275.586303710938	886.0869140625	-677.5036010742188	-1303.159423828125	878.0775756835938	-760.001220703125	-1303.995361328125	1057.070190429688	-730.8356323242188	-1309.687133789062	818.1311645507812	-758.76171875	-1272.395141601562	807.7249755859375	-702.318359375	-1415.610961914062	1469.023681640625	-289.2855529785156	-1456.25244140625	1405.128540039062	-231.6394195556641	-1480.888793945312	1114.717651367188	-198.6268005371094	-1525.917358398438	1100.839965820312	-241.5618743896484	-1351.833862304688	887.8439331054688	-200.2846527099609	-1416.906860351562	870.9818725585938	-151.3186950683594	-1476.046508789062	1059.077270507812	-189.9680786132812	-1358.091674804688	715.8385620117188	-198.1804046630859	-1335.853759765625	794.8831787109375	-177.331787109375	-1404.819702148438	796.5772094726562	-145.9715728759766	-1375.0087890625	1686.221923828125	-376.3394470214844	-1179.160034179688	1708.961059570312	-445.9837341308594	-1248.747924804688	1707.530029296875	-318.9296875	-1290.078979492188	1686.55419921875	-518.9310302734375	-1267.247192382812	937.0987548828125	-620.2725219726562	-1400.590942382812	931.271728515625	-257.2522888183594	-1311.812866210938	971.325927734375	-285.347900390625	-1209.73193359375	963.350830078125	-543.8138427734375	-1290.943237304688	491.198974609375	-560.1679077148438	-1267.046264648438	656.3003540039062	-593.3582763671875	-1383.25244140625	28.32508087158203	-575.070556640625	-1358.62646484375	249.3112182617188	-583.496826171875	-1201.542358398438	35.71654891967773	-453.4142761230469	-1282.211059570312	38.41122055053711	-441.64501953125	-1260.699829101562	32.25930023193359	-548.49072265625	-1465.25634765625	26.18660163879395	-545.132080078125	-1383.37060546875	497.1394958496094	-297.9161071777344	-1381.96728515625	787.0891723632812	-250.1475067138672	-1478.256958007812	32.35650253295898	-346.4527282714844	-1385.385864257812	353.6309814453125	-314.6370544433594	-1255.54150390625	37.97561264038086	-315.4663391113281	-1302.367797851562	36.82439422607422	-375.5618286132812	-1355.830810546875	36.13014221191406	-285.5662536621094	-1511.655639648438	19.93350791931152	-416.5758666992188	-1316.564331054688	723.9580078125	-704.0467529296875	
3	0.02	-1481.848754882812	1017.217163085938	-420.6449890136719	-1430.01123046875	1019.19189453125	-543.6627807617188	-1450.4736328125	1106.45361328125	-483.3430480957031	-1232.772094726562	1296.5439453125	-408.2454528808594	-1460.106079101562	1232.695556640625	-486.097900390625	-1423.929443359375	1506.647094726562	-452.1557312011719	-1251.516479492188	1407.97265625	-412.8523864746094	-1515.983276367188	1380.32666015625	-395.5544738769531	-1430.131225585938	1455.41845703125	-548.8970947265625	-1315.1826171875	1485.5947265625	-599.23046875	-1314.402587890625	1364.17626953125	-686.4863891601562	-1315.2548828125	1145.320922851562	-720.3463134765625	-1409.742553710938	1145.7373046875	-686.4977416992188	-1274.27197265625	886.0586547851562	-678.1729736328125	-1302.156005859375	878.3302001953125	-760.757080078125	-1303.08984375	1057.082397460938	-730.9701538085938	-1308.606811523438	818.2578735351562	-759.668212890625	-1271.191650390625	807.843017578125	-703.11865234375	-1415.603149414062	1469.078857421875	-289.0482482910156	-1456.2744140625	1405.192260742188	-231.3517456054688	-1481.104370117188	1114.902221679688	-198.2587280273438	-1526.211059570312	1100.893676757812	-241.3246917724609	-1352.339965820312	887.7799682617188	-199.9326782226562	-1417.409301757812	871.0286865234375	-150.9387359619141	-1476.337158203125	1059.261596679688	-189.525390625	-1358.809448242188	715.7689208984375	-197.7577972412109	-1336.53125	794.7603149414062	-176.8995666503906	-1405.407836914062	796.6130981445312	-145.6145172119141	-1375.023071289062	1686.206909179688	-376.2158508300781	-1179.1923828125	1708.9560546875	-445.8715209960938	-1248.666137695312	1707.49462890625	-318.7019348144531	-1290.197509765625	1686.54296875	-518.7367553710938	-1267.610595703125	937.1436767578125	-620.249755859375	-1400.990356445312	931.538330078125	-257.2928466796875	-1311.7626953125	971.2847290039062	-285.2615966796875	-1209.72900390625	963.4686279296875	-543.8668212890625	-1290.942016601562	491.2237243652344	-560.1425170898438	-1267.30224609375	656.3374633789062	-593.3680419921875	-1383.257568359375	28.3361930847168	-575.064697265625	-1358.651977539062	249.3103637695312	-583.3845825195312	-1201.502319335938	35.71347808837891	-453.459228515625	-1282.206787109375	38.40509033203125	-441.6407470703125	-1260.780883789062	32.27289962768555	-548.5065307617188	-1465.20361328125	26.12866592407227	-545.0975952148438	-1383.357666015625	497.0845031738281	-297.9129638671875	-1381.970947265625	787.0896606445312	-250.0841217041016	-1478.198364257812	32.31587600708008	-346.4147033691406	-1385.391357421875	353.5956115722656	-314.6229553222656	-1255.539184570312	37.97460556030273	-315.4755554199219	-1302.362670898438	36.81365203857422	-375.5794067382812	-1355.820190429688	36.12749862670898	-285.5906982421875	-1511.64697265625	19.9126148223877	-416.6123046875	-1315.325561523438	724.0279541015625	-705.3818969726562	
4	0.03	-1482.028686523438	1017.273376464844	-420.3944396972656	-1430.284301757812	1019.236206054688	-543.4527587890625	-1450.689086914062	1106.522216796875	-483.0160522460938	-1232.846923828125	1296.514770507812	-408.0853881835938	-1460.254028320312	1232.702026367188	-485.7389831542969	-1424.011108398438	1506.683837890625	-451.9557495117188	-1251.605712890625	1407.971313476562	-412.6343688964844	-1516.052490234375	1380.362915039062	-395.2394409179688	-1430.159912109375	1455.3740234375	-548.6321411132812	-1315.261840820312	1485.586547851562	-599.0309448242188	-1314.254760742188	1364.16455078125	-686.3294067382812	-1314.54541015625	1145.405029296875	-720.3641357421875	-1408.971801757812	1145.521850585938	-686.3369140625	-1272.623657226562	886.0491333007812	-678.8432006835938	-1300.87109375	878.6253662109375	-761.5347290039062	-1302.026245117188	1057.114990234375	-731.1148071289062	-1307.177001953125	818.4219970703125	-760.6171264648438	-1269.618041992188	807.9456787109375	-703.8899536132812	-1415.584838867188	1469.139404296875	-288.7688293457031	-1456.281494140625	1405.273681640625	-231.0225372314453	-1481.3349609375	1115.107299804688	-197.8324127197266	-1526.517456054688	1100.9873046875	-241.009033203125	-1352.869750976562	887.732666015625	-199.5153350830078	-1417.941772460938	871.0848388671875	-150.4813995361328	-1476.648681640625	1059.451416015625	-189.0352630615234	-1359.56103515625	715.7216796875	-197.23193359375	-1337.233154296875	794.662109375	-176.3936004638672	-1406.030883789062	796.6681518554688	-145.1706237792969	-1375.029296875	1686.197631835938	-376.057373046875	-1179.224365234375	1708.942260742188	-445.7472839355469	-1248.572875976562	1707.456909179688	-318.4457702636719	-1290.314086914062	1686.536865234375	-518.5109252929688	-1268.0263671875	937.1953735351562	-620.2192993164062	-1401.771362304688	932.0916137695312	-257.4781799316406	-1311.708740234375	971.2373657226562	-285.1629943847656	-1209.76513671875	963.5892944335938	-543.9127197265625	-1290.933715820312	491.2505187988281	-560.0912475585938	-1267.57568359375	656.3931884765625	-593.381103515625	-1383.265869140625	28.35275840759277	-575.0525512695312	-1358.664306640625	249.3014678955078	-583.2295532226562	-1201.460083007812	35.7158203125	-453.5022277832031	-1282.203857421875	38.3992919921875	-441.6326293945312	-1260.859985351562	32.29636001586914	-548.5067749023438	-1465.160522460938	26.07865524291992	-545.0654907226562	-1383.33984375	497.024658203125	-297.9078063964844	-1381.984008789062	787.0955810546875	-250.008544921875	-1478.138061523438	32.27234268188477	-346.3734130859375	-1385.39794921875	353.5565795898438	-314.6030883789062	-1255.535522460938	37.97260284423828	-315.4881896972656	-1302.360961914062	36.80292129516602	-375.5998840332031	-1355.815063476562	36.12673568725586	-285.6124572753906	-1511.63623046875	19.88394355773926	-416.648193359375	-1313.683715820312	724.0733032226562	-706.7846069335938	
